#tb 0: 1/1000
0,          0,          0,        0,    66444, 4757a31842453f806de2f2256329547e
0,         33,         33,        0,    66444, fe5fb955a4143091c5bfae7c4a4afe0f
0,         66,         66,        0,    66444, 93766c5a03d71f99afb7705add7b63f0
0,        100,        100,        0,    66444, 30c91162aa6fb0ed3e47325146bb6d8a
0,        133,        133,        0,    66444, 501fe67785b970b1b62c2ae0b36b19ad
0,        166,        166,        0,    66444, 836be5e778e3d20e75c4fcd71f765b3d
0,        200,        200,        0,    66444, 21a9fd5e78212fe71719e173844bc6e6
0,        233,        233,        0,    66444, 81b3919208e345d93dde62740b47dd93
0,        266,        266,        0,    66444, df010555a929ba88a2f25c6267e3786e
0,        300,        300,        0,    66444, d2cff8282e5e7a5bbd879c73df0670c3
